# AST/ASF file generated using VICON BodyLanguage
# -----------------------------------------------
:version 1.10
:name VICON
:units
  mass 1.0
  length 0.45
  angle deg
:documentation
   .ast/.asf automatically generated from VICON data using
   VICON BodyBuilder and BodyLanguage model FoxedUp or BRILLIANT.MOD
:root
   order TX TY TZ RX RY RZ
   axis XYZ
   position 0 0 0  
   orientation 0 -0 0 
:bonedata
  begin
     id 1 
     name lhipjoint
     direction 0.500677 -0.737119 0.453848 
     length 2.34727 
     axis 0 -0 0  XYZ
  end
  begin
     id 2 
     name lfemur
     direction 0.34202 -0.939693 0  
     length 7.53653  
     axis 0 -0 20  XYZ
    dof rx ry rz
    limits (-160.0 20.0)
           (-70.0 70.0)
           (-60.0 70.0)
  end
  begin
     id 3 
     name ltibia
     direction 0.34202 -0.939693 0   
     length 6.85572   
     axis 0 -0 20   XYZ
    dof rx
    limits (-10.0 170.0)
  end
  begin
     id 4 
     name lfoot
     direction 0.155313 -0.426718 0.890949   
     length 2.18324   
     axis -90 -1.13533e-015 20   XYZ
    dof rx rz
    limits (-45.0 90.0)
           (-70.0 20.0)
  end
  begin
     id 5 
     name ltoes
     direction 1.53474e-011 -4.21647e-011 1   
     length 1.06748   
     axis -90 -1.13533e-015 20   XYZ
    dof rx
    limits (-90.0 20.0)
  end
  begin
     id 6 
     name rhipjoint
     direction -0.632471 -0.659587 0.406111   
     length 2.62319  
     axis 0 -0 0  XYZ 
  end
  begin
     id 7 
     name rfemur
     direction -0.34202 -0.939693 0   
     length 7.21735   
     axis 0 -0 -20   XYZ
    dof rx ry rz
    limits (-160.0 20.0)
           (-70.0 70.0)
           (-70.0 60.0)
  end
  begin
     id 8 
     name rtibia
     direction -0.34202 -0.939693 0   
     length 7.02558   
     axis 0 -0 -20   XYZ
    dof rx
    limits (-10.0 170.0)
 end
 begin
     id 9 
     name rfoot
     direction -0.16057 -0.441164 0.882945   
     length 2.10014  
     axis -90 1.13533e-015 -20   XYZ
    dof rx rz
    limits (-45.0 90.0)
           (-20.0 70.0)
  end
  begin
     id 10 
     name rtoes
     direction -1.53553e-011 -4.2192e-011 1   
     length 1.02554   
     axis -90 1.13533e-015 -20   XYZ
    dof rx
    limits (-90.0 20.0)
  end
  begin
     id 11 
     name lowerback
     direction 0.0401429 0.998861 -0.0258085   
     length 1.80848   
     axis 0 -0 0   XYZ
    dof rx ry rz
    limits (-20.0 45.0)
           (-30.0 30.0)
           (-30.0 30.0)
  end
  begin
     id 12 
     name upperback
     direction -0.0130978 0.999914 -0.000352645   
     length 1.8116   
     axis 0 -0 0   XYZ
    dof rx ry rz
    limits (-20.0 45.0)
           (-30.0 30.0)
           (-30.0 30.0)
  end
  begin
     id 13 
     name thorax
     direction -0.0300198 0.999453 0.0138573   
     length 1.81778   
     axis 0 -0 0   XYZ
    dof rx ry rz
    limits (-20.0 45.0)
           (-30.0 30.0)
           (-30.0 30.0)
  end
  begin
     id 14 
     name lowerneck
     direction -0.0401726 0.999191 -0.00173647   
     length 2.10594   
     axis 0 -0 0   XYZ
    dof rx ry rz
    limits (-20.0 45.0)
           (-30.0 30.0)
           (-30.0 30.0)
  end
  begin
     id 15 
     name upperneck
     direction 0.0119835 0.998501 0.0534085   
     length 2.07325   
     axis 0 -0 0   XYZ
    dof rx ry rz
    limits (-20.0 45.0)
           (-30.0 30.0)
           (-30.0 30.0)
  end
  begin
     id 16
     name head
     direction 0.00628309 0.999826 0.0175921  
     length 2.15096  
     axis 0 -0 0   XYZ
    dof rx ry rz
    limits (-20.0 45.0)
           (-30.0 30.0)
           (-30.0 30.0)
  end
  begin
     id 17 
     name lclavicle
     direction 0.895501 0.429681 -0.115981  
     length 4.18092  
     axis 0 -0 0   XYZ
    dof ry rz
    limits (-20.0 10.0)
           (0.0 20.0)
  end
  begin
     id 18 
     name lhumerus
     direction 1 -4.48961e-011 -3.38433e-028   
     length 5.77237   
     axis 180 -30 -90   XYZ
    dof rx ry rz
    limits (-60.0 90.0)
           (-90.0 90.0)
           (-90.0 90.0)
  end
  begin
     id 19
     name lradius
     direction 1 -4.4901e-011 1.11983e-026   
     length 2.91878   
     axis 180 -30 -90   XYZ
    dof rx
    limits (-10.0 170.0)
  end
  begin
     id 20
     name lwrist
     direction 1 -4.48934e-011 1.88176e-026   
     length 1.45939   
     axis -1.23311e-014 90 90   XYZ
    dof ry
    limits (-180.0 0.0)
 end
  begin
     id 21 
     name lhand
     direction 1 -4.4895e-011 3.76352e-026   
     length 1.06566   
     axis -2.40147e-014 90 90   XYZ
    dof rx rz
    limits (-90.0 90.0)
           (-45.0 45.0)
  end
  begin
     id 22 
     name lfingers
     direction 1 -4.49005e-011 7.52705e-026   
     length 0.859162   
     axis -4.80295e-014 90 90   XYZ
    dof rx
    limits (0.0 90.0)
  end
  begin
     id 23
     name lthumb
     direction 0.707107 -6.34885e-011 0.707107   
     length 1.23359   
     axis -90 45 -9.86935e-015   XYZ
    dof rx rz
    limits (-45.0 45.0)
           (-45.0 45.0)
  end
  begin
     id 24 
     name rclavicle
     direction -0.91006 0.40451 -0.0903492   
     length 4.23293  
     axis 0 -0 0   XYZ 
    dof ry rz
    limits (-10.0 20.0)
           (-20.0 0.0)
  end
  begin
     id 25 
     name rhumerus
     direction -1 -4.4897e-011 1.7415e-027  
     length 5.49854   
     axis 180 30 90   XYZ
    dof rx ry rz
    limits (-90.0 60.0)
           (-90.0 90.0)
           (-90.0 90.0)
  end
  begin
     id 26 
     name rradius
     direction -1 -4.48963e-011 1.21259e-026   
     length 3.1186   
     axis 180 30 90   XYZ
    dof rx
    limits (-10.0 170.0)
  end
  begin
     id 27 
     name rwrist
     direction -1 -4.48967e-011 1.88176e-026   
     length 1.5593   
     axis -1.23311e-014 -90 -90   XYZ
    dof ry
    limits (-180.0 0.0)
  end
  begin
     id 28
     name rhand
     direction -1 -4.4895e-011 3.76352e-026   
     length 0.71207   
     axis -2.40147e-014 -90 -90   XYZ
    dof rx rz
    limits (-90.0 90.0)
           (-45.0 45.0)
  end
  begin
     id 29
     name rfingers
     direction -1 -4.49005e-011 7.52705e-026   
     length 0.574089   
     axis -4.80295e-014 -90 -90   XYZ
    dof rx
    limits (0.0 90.0)
  end
  begin
     id 30
     name rthumb
     direction -0.707107 -6.34982e-011 0.707107   
     length 0.824281   
     axis -90 -45 9.86935e-015   XYZ
    dof rx rz
    limits (-45.0 45.0)
           (-45.0 45.0)
  end
:hierarchy
  begin
    root lhipjoint rhipjoint lowerback
    lhipjoint lfemur
    lfemur ltibia
    ltibia lfoot
    lfoot ltoes
    rhipjoint rfemur
    rfemur rtibia
    rtibia rfoot
    rfoot rtoes
    lowerback upperback
    upperback thorax
    thorax lowerneck lclavicle rclavicle
    lowerneck upperneck
    upperneck head
    lclavicle lhumerus
    lhumerus lradius
    lradius lwrist
    lwrist lhand lthumb
    lhand lfingers
    rclavicle rhumerus
    rhumerus rradius
    rradius rwrist
    rwrist rhand rthumb
    rhand rfingers
  end

#!OML:ASF C:\ViconDB\ViconDB\414\Spring2016\042216\male.ASF
:FULLY-SPECIFIED
:DEGREES
304
root 5.66739 17.6241 10.5793 -32.7684 87.5886 -33.465
lowerback 1.02538 -1.05414 4.88023
upperback -0.895089 -1.33688 -1.12463
thorax -1.63648 -0.730117 -3.86338
lowerneck -2.39323 4.14683 -3.44713
upperneck -3.06156 5.62604 0.106817
head -0.642665 2.86028 0.598105
rclavicle -3.6946e-014 6.95746e-015
rhumerus -28.861 -7.51773 -91.5135
rradius 26.0634
rwrist 34.0714
rhand 11.5263 -19.0726
rfingers 7.12502
rthumb 36.5725 -45.2464
lclavicle -3.6946e-014 6.95746e-015
lhumerus -41.4135 19.8488 78.7588
lradius 31.4052
lwrist -17.3642
lhand -5.88054 12.2167
lfingers 7.12502
lthumb 19.9472 41.2129
rfemur -8.9587 2.02316 20.7134
rtibia 51.8274
rfoot 0.0176415 -7.00958
rtoes -27.9907
lfemur -12.2967 -0.723419 -20.5155
ltibia 21.3514
lfoot -16.5636 11.9086
ltoes -11.2807
305
root 5.8361 17.6435 10.5632 -33.5723 87.7352 -34.223
lowerback 1.23638 -1.1674 4.73334
upperback -0.896236 -1.48018 -1.10666
thorax -1.76654 -0.803291 -3.75339
lowerneck -2.42423 4.1358 -3.34374
upperneck -2.97885 5.60845 -0.0112675
head -0.604898 2.84979 0.546737
rclavicle -1.51977e-014 -5.1684e-015
rhumerus -29.3797 -8.14477 -91.0853
rradius 26.0909
rwrist 34.1195
rhand 11.0544 -19.0243
rfingers 7.12502
rthumb 36.1257 -45.3098
lclavicle -1.51977e-014 -5.1684e-015
lhumerus -40.6832 19.3189 79.2287
lradius 31.5966
lwrist -17.4461
lhand -6.10856 12.1921
lfingers 7.12502
lthumb 19.728 41.211
rfemur -10.6176 1.54495 20.6481
rtibia 52.421
rfoot -1.05313 -7.69349
rtoes -27.1927
lfemur -11.2576 -0.870591 -20.6548
ltibia 20.6839
lfoot -17.0243 12.0223
ltoes -11.2215
306
root 6.01282 17.6582 10.5586 -43.6279 87.7457 -44.1655
lowerback 1.35365 -1.28888 4.78855
upperback -0.810748 -1.63489 -0.958759
thorax -1.75702 -0.878381 -3.62472
lowerneck -2.39069 4.10187 -3.48306
upperneck -3.03611 5.56731 0.15118
head -0.636662 2.83067 0.61803
rclavicle 5.7368e-015 -9.34288e-015
rhumerus -29.8792 -8.60986 -90.6895
rradius 26.1914
rwrist 33.7429
rhand 11.0557 -19.146
rfingers 7.12502
rthumb 36.1269 -45.4313
lclavicle 5.7368e-015 -9.34288e-015
lhumerus -39.8184 18.8357 79.7373
lradius 31.7477
lwrist -17.2718
lhand -6.14522 12.1897
lfingers 7.12502
lthumb 19.6928 41.2123
rfemur -12.0191 1.10392 21.0876
rtibia 52.6124
rfoot -2.21998 -8.4215
rtoes -25.9181
lfemur -10.2206 -0.842994 -20.3555
ltibia 20.1788
lfoot -17.3324 11.8109
ltoes -11.4803
307
root 6.18893 17.6667 10.5518 -52.0936 87.8173 -52.4752
lowerback 1.45897 -1.44297 4.71575
upperback -0.699316 -1.83763 -0.865414
thorax -1.71573 -0.975092 -3.47912
lowerneck -2.41572 4.0722 -3.46042
upperneck -3.02033 5.52931 0.213194
head -0.628241 2.81089 0.634205
rclavicle -8.60675e-015 2.18663e-015
rhumerus -30.4163 -9.09438 -90.3935
rradius 26.4148
rwrist 33.4211
rhand 11.0945 -19.3012
rfingers 7.12502
rthumb 36.1637 -45.5773
lclavicle -8.60675e-015 2.18663e-015
lhumerus -38.9862 18.2737 80.1986
lradius 32.0468
lwrist -17.1332
lhand -6.16842 12.3821
lfingers 7.12502
lthumb 19.6704 41.4069
rfemur -13.275 0.749424 21.3663
rtibia 52.5033
rfoot -3.31085 -9.02988
rtoes -24.9395
lfemur -9.19456 -0.742795 -20.2315
ltibia 19.7701
lfoot -17.7726 11.5773
ltoes -11.3178
308
root 6.36343 17.67 10.5364 -56.6506 87.8425 -56.9339
lowerback 1.55683 -1.52389 4.64156
upperback -0.607123 -1.94258 -0.764522
thorax -1.67951 -1.02342 -3.32825
lowerneck -2.51016 4.09882 -3.63021
upperneck -2.9623 5.57677 0.490502
head -0.609754 2.8344 0.750416
rclavicle -1.29816e-014 -3.97569e-016
rhumerus -30.9006 -9.08075 -90.1304
rradius 26.5504
rwrist 32.4302
rhand 11.0366 -19.3384
rfingers 7.12502
rthumb 36.1088 -45.6282
lclavicle -1.29816e-014 -3.97569e-016
lhumerus -38.2327 17.5962 80.8558
lradius 32.5049
lwrist -16.4853
lhand -6.36104 12.5865
lfingers 7.12502
lthumb 19.4853 41.6301
rfemur -14.5235 0.337111 21.4794
rtibia 52.0639
rfoot -4.28627 -9.28501
rtoes -24.5761
lfemur -8.28239 -0.673605 -20.2367
ltibia 19.5075
lfoot -18.6668 11.5154
ltoes -10.4141
309
root 6.53731 17.6688 10.5142 -57.3208 88.2195 -57.6378
lowerback 1.45699 -1.6614 4.24882
upperback -0.514784 -2.14085 -0.766303
thorax -1.53174 -1.11366 -3.10697
lowerneck -2.65311 4.07638 -3.65731
upperneck -2.8787 5.55336 0.468959
head -0.5601 2.8224 0.752557
rclavicle -3.44767e-015 -1.25234e-014
rhumerus -31.2479 -8.92663 -89.8938
rradius 26.6799
rwrist 31.6059
rhand 11.0911 -19.3326
rfingers 7.12502
rthumb 36.1605 -45.6096
lclavicle -3.44767e-015 -1.25234e-014
lhumerus -37.327 18.1403 80.9646
lradius 32.4985
lwrist -16.9394
lhand -6.32329 12.0672
lfingers 7.12502
lthumb 19.5215 41.1072
rfemur -15.8705 -0.249614 21.1268
rtibia 51.3865
rfoot -5.14472 -9.27578
rtoes -24.3763
lfemur -7.53394 -0.713341 -20.7015
ltibia 19.2951
lfoot -18.7736 11.4516
ltoes -11.6621
310
root 6.71912 17.6629 10.5007 -67.655 88.3173 -67.8075
lowerback 1.54439 -1.82983 4.13606
upperback -0.408485 -2.36524 -0.728664
thorax -1.48434 -1.22169 -2.99633
lowerneck -2.7146 4.05384 -3.46043
upperneck -2.78817 5.52059 0.45653
head -0.51524 2.80287 0.718713
rclavicle -6.29375e-015 2.98177e-015
rhumerus -31.8081 -9.24221 -89.601
rradius 26.9109
rwrist 31.4962
rhand 11.2187 -19.1677
rfingers 7.12502
rthumb 36.2813 -45.4146
lclavicle -6.29375e-015 2.98177e-015
lhumerus -36.5252 17.2586 81.532
lradius 32.8875
lwrist -15.7152
lhand -6.47197 12.4704
lfingers 7.12502
lthumb 19.3786 41.5248
rfemur -16.8321 -0.605204 21.2322
rtibia 50.4033
rfoot -6.07103 -9.52118
rtoes -24.1009
lfemur -6.60738 -0.794154 -20.7327
ltibia 19.1919
lfoot -19.2599 11.3908
ltoes -12.3285
311
root 6.90647 17.6546 10.4858 -74.5757 88.3471 -74.623
lowerback 1.50542 -1.84148 4.24518
upperback -0.325708 -2.38211 -0.754921
thorax -1.38441 -1.22765 -3.08698
lowerneck -2.74676 3.97731 -3.55439
upperneck -2.63345 5.42503 0.7469
head -0.472065 2.7529 0.826735
rclavicle 7.66806e-015 -8.15017e-015
rhumerus -32.3589 -9.56828 -89.2857
rradius 27.0554
rwrist 30.9207
rhand 11.5872 -19.0312
rfingers 7.12502
rthumb 36.6301 -45.1904
lclavicle 7.66806e-015 -8.15017e-015
lhumerus -35.6277 16.6674 81.9896
lradius 32.9854
lwrist -15.3301
lhand -6.7655 12.4229
lfingers 7.12502
lthumb 19.0963 41.5054
rfemur -17.768 -0.830198 21.2962
rtibia 49.1473
rfoot -7.10115 -9.7302
rtoes -23.2702
lfemur -5.74349 -0.878876 -20.7897
ltibia 19.169
lfoot -19.9334 11.4744
ltoes -12.3189
312
root 7.07567 17.6401 10.4756 -91.8044 88.3719 -91.8142
lowerback 1.60988 -2.03428 4.08986
upperback -0.254468 -2.63776 -0.676769
thorax -1.3807 -1.3524 -2.90829
lowerneck -2.91313 3.95495 -3.63271
upperneck -2.5103 5.40638 0.968674
head -0.415364 2.7428 0.913929
rclavicle 3.05344e-014 4.37326e-015
rhumerus -32.647 -9.16355 -89.2321
rradius 27.0985
rwrist 29.7906
rhand 11.6572 -19.5351
rfingers 7.12502
rthumb 36.6964 -45.6774
lclavicle 3.05344e-014 4.37326e-015
lhumerus -34.7758 16.2853 82.416
lradius 33.3108
lwrist -14.7934
lhand -6.65531 12.3891
lfingers 7.12502
lthumb 19.2023 41.4611
rfemur -18.6954 -1.26235 21.4401
rtibia 47.6099
rfoot -7.87084 -10.0522
rtoes -23.5286
lfemur -5.08324 -1.06887 -20.8134
ltibia 19.206
lfoot -20.5739 11.3668
ltoes -12.6165
